<svg
  width="115"
  height="55"
  viewBox="0 0 115 55"
  fill="none"
  xmlns="http://www.w3.org/2000/svg"
>
  <path
    d="M29.3272 48.4506C28.9929 48.1941 28.918 48.0935 29.1343 47.7767C29.4486 47.314 28.5787 46.9653 27.3495 46.8061C24.0612 46.3786 14.9944 43.8742 10.3854 37.3029C10.3288 37.2225 10.3255 37.1168 10.4037 37.0582C13.4492 34.7683 16.7559 31.0938 18.8433 25.7764C23.0033 15.1786 17.3114 9.61145 12.729 10.1445C8.97155 10.582 6.55142 13.1267 5.43866 15.0562C5.39209 15.1367 5.26568 15.1048 5.26901 15.0126C5.36049 12.5769 5.45031 11.9768 5.03614 11.8024C4.25605 11.4739 0.323967 12.9105 0.142665 15.8508C-0.491059 26.115 1.01923 43.3545 4.02152 54.0797C4.02152 54.0797 4.29929 54.7771 4.77334 54.9732C5.24738 55.1677 5.56009 54.2423 6.07738 54.2222C6.59633 54.2021 6.72607 53.3757 7.30491 53.2013C7.88374 53.027 8.00683 53.3572 8.17981 52.3112C8.34282 51.3222 7.55274 44.5464 7.18681 41.7502C7.17184 41.6312 7.31988 41.5675 7.39306 41.6614C8.95492 43.6831 12.2965 47.1279 17.8021 48.7171C25.8559 51.0405 29.4719 49.4564 29.8179 49.2485C30.4084 48.8931 29.6549 48.7037 29.3256 48.4506H29.3272ZM6.25702 34.7297C6.17385 34.7951 6.02914 34.9292 5.98922 34.6325C5.97592 34.5336 5.96594 34.433 5.95429 34.3324C5.79129 32.8086 5.58836 29.6538 5.76467 27.3857C6.51317 17.7987 10.9243 15.073 13.2163 15.3127C15.7429 15.5775 16.197 20.687 12.9735 26.5894C10.5766 30.9781 7.61595 33.6485 6.25535 34.7297H6.25702Z"
    fill="#FFFFFF"
  />
  <path
    d="M36.3187 28.3408C35.7399 22.5541 35.9262 21.3354 34.5872 20.7487C33.2482 20.162 32.2769 20.3715 31.9392 20.866C31.6016 21.3589 31.4602 22.7167 31.2356 22.2674C31.2356 22.2674 31.2223 20.9096 29.2446 20.871C27.267 20.8325 22.7527 22.4082 20.7567 29.4204C18.7608 36.4325 21.9693 40.4691 24.1682 41.2905C26.3205 42.0935 29.7436 42.4087 32.543 35.4552C32.5946 35.3295 32.7675 35.3211 32.8258 35.4435C33.2017 36.2481 34.2861 38.2815 35.9561 38.9772C38.0569 39.8522 37.3417 39.0476 37.6294 39.1029C37.7908 39.1331 39.1497 39.4516 39.1197 39.061C39.0981 38.7878 38.9567 38.6252 38.7006 38.072C38.1151 36.8063 36.8976 34.1275 36.3187 28.3408ZM29.6305 33.69C28.7373 36.2414 26.5334 40.2043 25.6901 37.1584C24.5607 33.0765 25.77 26.522 30.8664 23.694C30.9728 23.6353 31.1026 23.7191 31.0992 23.8415C30.9612 28.3073 30.5038 31.1923 29.6289 33.6917L29.6305 33.69Z"
    fill="#FFFFFF"
  />
  <path
    d="M45.0811 23.2144C44.2096 21.533 45.6666 20.1668 48.4394 20.6529C50.0295 20.9312 49.8266 20.1886 50.5202 19.7812C51.1323 19.4225 50.6533 18.5323 48.7754 17.6841C45.9228 16.395 41.9325 16.6699 40.2392 18.9431C38.5443 21.2162 38.877 23.8614 40.863 26.153C41.4535 26.8336 42.2751 27.8059 43.1367 28.6574C45.1626 30.6607 47.3616 32.7628 46.9607 34.3419C46.3902 36.5849 40.374 34.1676 39.4525 34.0201C38.9019 33.9312 39.1331 34.5649 39.672 35.0443C40.1112 35.5003 40.5869 35.9194 40.2559 36.0367C39.9348 36.1591 40.1295 36.4038 41.0276 36.8531C41.846 37.2621 42.5862 38.1673 43.3846 38.3568C44.1813 38.5462 48.629 39.4497 50.7763 36.7659C52.932 34.0703 52.4613 31.2876 50.1809 28.8553C47.8922 26.4145 46.0791 25.1338 45.0845 23.2127L45.0811 23.2144Z"
    fill="#FFFFFF"
  />
  <path
    d="M97.5026 36.892C93.3077 34.6457 90.3121 29.9805 90.1242 25.4493C90.1208 25.3555 90.1757 25.3001 90.2306 25.4426C90.5766 26.3546 90.9974 27.8297 91.5529 26.5406C95.6896 16.5899 98.5705 3.36858 96.1337 0.968062C92.5476 -2.56399 87.1851 4.076 85.8877 12.679C85.3604 16.1758 84.8148 23.079 86.4116 28.7819C85.6565 29.7927 84.7267 30.6091 83.7287 30.5018C80.8295 30.1917 81.6928 22.4621 81.9972 20.5561C82.1968 19.3072 82.418 18.9099 81.7344 18.2126C81.3734 17.8438 80.0328 17.2453 79.3176 17.4582C78.8535 17.5974 78.6356 18.2344 78.4942 18.5244C78.3712 18.7758 78.3396 18.6652 78.3346 18.3936C78.3296 18.0584 78.3113 17.4968 77.5861 17.2973C76.5232 17.0056 71.8243 17.5638 69.0716 21.5368C67.864 23.2785 66.9475 26.0109 66.8111 28.564C65.5121 30.4934 63.3082 32.9325 60.4406 32.9912C56.4952 33.07 57.1572 26.7502 58.5394 24.8274C59.8036 23.0689 61.9775 22.3364 62.9988 24.063C63.2998 24.5458 64.3245 24.058 64.6754 23.7277C65.206 23.2315 65.5403 22.4655 65.5703 22.0179C65.6368 21.0372 65.4239 19.7045 63.6225 18.6082C60.9912 17.009 57.0707 18.1489 54.6406 21.8167C51.6017 26.4065 52.445 35.323 59.0784 36.2282C62.711 36.7244 65.6817 33.8176 67.192 31.9368C67.7675 33.6533 69.0034 34.8938 71.164 35.0347C75.8163 35.3397 77.8655 29.7424 77.8655 29.7424C77.8655 29.7424 79.3109 34.3909 84.5437 33.6165C85.8661 33.4203 86.899 32.7532 87.6791 31.9887C88.9049 34.2904 91.3683 37.6229 95.7678 38.9171C96.3782 39.0964 97.8103 39.3948 97.2298 38.7863C96.962 38.5047 98.963 38.5935 98.3725 37.9917C97.8685 37.4788 99.1027 37.7486 97.4993 36.8887L97.5026 36.892ZM77.7574 20.417C76.6463 28.4818 72.9504 32.1245 71.8094 31.4925C70.8447 30.9561 70.4321 28.5338 71.7262 25.4577C73.3629 21.5686 76.7627 20.4404 77.5911 20.2644C77.6809 20.246 77.769 20.3248 77.7574 20.417ZM89.7549 22.0061C89.3407 13.021 92.7605 3.07354 93.7884 3.34008C94.3889 3.49598 92.4145 13.8776 89.8231 22.0162C89.8098 22.0564 89.7582 22.0464 89.7566 22.0045L89.7549 22.0061Z"
    fill="#FFFFFF"
  />
  <path
    d="M102.957 23.7594C101.587 22.4686 99.5856 20.6683 99.9698 19.6004C100.354 18.5343 102.056 18.8645 103.173 19.3993C104.136 19.8603 104.444 19.7211 104.579 19.5736C104.714 19.4278 107.36 19.3993 105.194 17.567C102.338 15.1497 98.067 15.651 96.8078 17.8118C95.6235 19.8468 96.2373 22.3178 97.9871 24.2741C99.2097 25.6403 103.586 29.5193 102.496 30.8218C100.883 32.753 96.6764 29.4439 95.8065 28.6929C95.6435 28.5521 95.3574 28.2738 95.2526 28.5085C95.1478 28.7432 93.8554 28.0157 94.3777 29.2679C94.6838 30.0038 94.8368 30.1396 95.2759 30.9308C95.394 31.142 94.7403 31.132 95.0397 31.5611C95.8897 32.7781 97.5996 34.1159 99.8434 34.6657C103.41 35.5407 106.408 34.1963 107.152 31.2493C107.877 28.3811 104.324 25.0485 102.954 23.7577L102.957 23.7594Z"
    fill="#FFFFFF"
  />
  <path
    d="M108.03 17.7247L107.062 17.822C107.036 17.8236 107.016 17.8438 107.016 17.8639V18.0399C107.017 18.06 107.037 18.0734 107.062 18.0701L107.38 18.0382L107.335 19.4229C107.335 19.443 107.353 19.4564 107.378 19.4547L107.588 19.4363C107.612 19.4346 107.634 19.4162 107.634 19.396L107.709 18.0064L108.018 17.9762C108.043 17.9745 108.065 17.9544 108.066 17.9343L108.073 17.7583C108.073 17.7381 108.055 17.7247 108.028 17.7264L108.03 17.7247Z"
    fill="#FFFFFF"
  />
  <path
    d="M109.707 17.5538L109.378 17.5874C109.353 17.589 109.331 17.6058 109.325 17.6259L109.009 18.6434L108.738 17.6812C108.731 17.6628 108.711 17.6527 108.688 17.6544L108.394 17.6846C108.364 17.6879 108.339 17.7097 108.339 17.7332L108.277 19.3207C108.277 19.3442 108.542 19.3391 108.542 19.3391C108.572 19.3358 108.597 19.3157 108.597 19.2922L108.636 18.3132L108.864 18.9653C108.871 18.9921 108.899 19.0072 108.934 19.0039L109.112 18.9854C109.147 18.9821 109.177 18.9603 109.185 18.9318L109.441 18.1288L109.414 19.2117C109.414 19.2335 109.439 19.2486 109.466 19.2453L109.672 19.2251C109.702 19.2218 109.727 19.2 109.727 19.1765L109.76 17.5874C109.76 17.5639 109.737 17.5471 109.709 17.5505L109.707 17.5538Z"
    fill="#FFFFFF"
  />
  <path
    d="M114.83 30.7449C114.844 30.822 114.859 30.8991 114.87 30.9779C114.89 31.1187 114.847 31.231 114.749 31.3417C114.511 31.6115 114.188 31.7792 113.917 32.0105C113.595 32.2854 113.26 32.5453 112.933 32.8135C112.881 32.8554 112.836 32.9023 112.79 32.9476C112.958 33.2175 113.131 33.4656 113.272 33.7304C113.493 34.1478 113.781 34.5301 113.964 34.9693C114.075 35.2391 114.23 35.4956 114.361 35.7588C114.405 35.846 114.473 35.9248 114.43 36.0421C114.411 36.089 114.48 36.1695 114.509 36.2366C114.456 36.2885 114.403 36.3439 114.345 36.3975C114.237 36.4964 114.132 36.6003 113.979 36.6406C113.828 36.6808 113.681 36.7344 113.53 36.778C113.492 36.7898 113.448 36.7898 113.407 36.7847C113.119 36.7546 112.83 36.7244 112.542 36.6875C112.49 36.6808 112.432 36.6557 112.395 36.6204C112.257 36.4863 112.119 36.3506 111.993 36.2047C111.793 35.9767 111.595 35.7471 111.414 35.5074C111.291 35.3448 111.196 35.1604 111.083 34.991C111.04 34.9257 110.977 34.872 110.91 34.7999C110.705 34.9609 110.509 35.1117 110.318 35.266C109.984 35.5359 109.668 35.8275 109.293 36.0522C109.152 36.136 109.017 36.1108 108.876 36.1092C108.781 36.1092 108.685 36.084 108.593 36.0958C108.35 36.1226 108.254 36.074 108.151 35.8611C108.044 35.6431 108.074 35.4504 108.204 35.2576C108.355 35.0313 108.581 34.8787 108.763 34.6843C108.991 34.4412 109.199 34.1797 109.42 33.9299C109.461 33.8813 109.516 33.8394 109.573 33.8092C109.699 33.7422 109.807 33.6651 109.879 33.5343C109.937 33.432 109.924 33.3365 109.884 33.246C109.761 32.9677 109.628 32.6928 109.495 32.4179C109.446 32.3206 109.383 32.2301 109.332 32.1346C109.287 32.0507 109.243 31.9669 109.21 31.8798C109.16 31.7457 109.109 31.6115 109.084 31.4724C109.06 31.3417 109.069 31.2059 109.072 31.0718C109.074 30.9662 109.097 30.8605 109.094 30.7549C109.085 30.5353 109.132 30.3325 109.233 30.1414C109.265 30.0844 109.26 30.0224 109.257 29.9536C109.248 29.7776 109.159 29.5899 109.293 29.4222C109.338 29.3669 109.37 29.2948 109.302 29.2194C109.288 29.2043 109.295 29.1691 109.298 29.144C109.31 29.0602 109.323 28.9763 109.34 28.8707C109.445 28.9445 109.563 29.0082 109.659 29.0954C110.168 29.5564 110.725 29.9704 111.131 30.532C111.241 30.6829 111.353 30.832 111.459 30.9829C111.639 31.236 111.815 31.4908 111.995 31.7423C112.073 31.8513 112.108 31.858 112.229 31.7741C112.429 31.6367 112.617 31.4825 112.82 31.3517C113.046 31.2075 113.274 31.0617 113.52 30.9544C113.761 30.8488 114.02 30.7767 114.28 30.7147C114.401 30.6862 114.539 30.7164 114.671 30.7231C114.724 30.7264 114.779 30.7348 114.834 30.7415"
    fill="#FFFFFF"
  />
</svg>